<svg xmlns="http://www.w3.org/2000/svg" viewBox="0 0 600 180" role="img" aria-label="Ferti Khor">
  <defs>
    <linearGradient id="leafGradient" x1="0%" y1="0%" x2="100%" y2="100%">
      <stop offset="0%" stop-color="#0f7a49" />
      <stop offset="100%" stop-color="#0a5c3a" />
    </linearGradient>
  </defs>
  <rect width="600" height="180" fill="transparent" />
  <g fill="url(#leafGradient)" opacity="0.9">
    <path d="M45 40c20 0 50 40 60 60s-20 30-40 15-30-75-20-75z" />
    <path d="M160 70c24-10 70 40 76 60s-30 18-50 6-40-56-26-66z" />
    <path d="M270 45c23-8 61 36 70 56s-19 27-41 14-45-62-29-70z" />
    <path d="M390 70c28-10 70 30 84 54s-18 30-42 19-70-63-42-73z" />
    <path d="M520 50c20-5 55 35 62 54s-20 25-42 12-48-56-20-66z" />
  </g>
  <g fill="#c62828" stroke="#ffffff" stroke-width="4" paint-order="stroke">
    <rect x="75" y="35" width="80" height="110" rx="6" />
    <rect x="262" y="35" width="80" height="110" rx="6" />
  </g>
  <text x="115" y="120" font-family="Playfair Display, 'Times New Roman', serif" font-size="72" text-anchor="middle" fill="#ffffff">
    F
  </text>
  <text x="302" y="120" font-family="Playfair Display, 'Times New Roman', serif" font-size="72" text-anchor="middle" fill="#ffffff">
    K
  </text>
  <text x="360" y="120" font-family="Playfair Display, 'Times New Roman', serif" font-size="64" fill="#c62828" stroke="#ffffff" stroke-width="3" paint-order="stroke">
    HOR
  </text>
  <text x="170" y="120" font-family="Playfair Display, 'Times New Roman', serif" font-size="64" fill="#c62828" stroke="#ffffff" stroke-width="3" paint-order="stroke">
    ERTI
  </text>
</svg>
