<svg xmlns="http://www.w3.org/2000/svg" viewBox="0 0 32 32" role="img" aria-label="WhatsApp">
  <path fill="#25D366" d="M16 3C9.373 3 4 8.373 4 15c0 2.412.708 4.657 1.927 6.55L4 29l7.689-1.931A12 12 0 1 0 16 3Z"/>
  <path fill="#fff" d="M12.914 10.001c-.227-.505-.468-.515-.685-.525-.177-.008-.38-.007-.584-.007-.204 0-.535.077-.815.383-.279.305-1.07 1.045-1.07 2.55 0 1.504 1.095 2.957 1.247 3.158.152.2 2.119 3.348 5.23 4.563 2.583 1.013 3.11.813 3.67.762.56-.05 1.81-.74 2.066-1.456.256-.715.256-1.328.18-1.456-.076-.128-.279-.204-.584-.357-.305-.152-1.81-.886-2.09-.986-.279-.101-.483-.152-.685.152-.203.305-.787.986-.964 1.189-.177.203-.355.229-.66.076-.305-.152-1.288-.476-2.455-1.516-.907-.809-1.52-1.807-1.698-2.112-.178-.305-.019-.47.134-.621.137-.137.305-.356.458-.534.152-.178.203-.305.304-.508.101-.203.051-.38-.025-.534-.075-.153-.66-1.65-.934-2.255"/>
</svg>
